/* XPM */
static char *bitcoin64[] = {
/* columns rows colors chars-per-pixel */
"64 64 256 2 ",
"   c #060607",
".  c #190806",
"X  c #040A16",
"o  c #091518",
"O  c #171416",
"+  c #260304",
"@  c #360805",
"#  c #30150B",
"$  c #3B2511",
"%  c #071829",
"&  c #061B37",
"*  c #0B1327",
"=  c #082836",
"-  c #102C32",
";  c #323530",
":  c #470A05",
">  c #580A07",
",  c #561807",
"<  c #461510",
"1  c #66150A",
"2  c #6E1207",
"3  c #503210",
"4  c #6C280D",
"5  c #53302F",
"6  c #384536",
"7  c #724D15",
"8  c #4B4C31",
"9  c #764F34",
"0  c #675522",
"q  c #031849",
"w  c #042647",
"e  c #073948",
"r  c #043758",
"t  c #103450",
"y  c #312F57",
"u  c #073A65",
"i  c #303176",
"p  c #0D1C70",
"a  c #47385D",
"s  c #044759",
"d  c #104953",
"f  c #325051",
"g  c #034869",
"h  c #07546A",
"j  c #054975",
"k  c #035A74",
"l  c #045879",
"z  c #175776",
"x  c #1A5569",
"c  c #2C5C72",
"v  c #186A79",
"b  c #266575",
"n  c #2F6F75",
"m  c #525451",
"M  c #6C594A",
"N  c #716751",
"B  c #536A6C",
"V  c #5D6E61",
"C  c #921B0A",
"Z  c #8C310C",
"A  c #A23B06",
"S  c #8F4C13",
"D  c #A84509",
"F  c #B05410",
"G  c #916814",
"H  c #A66A13",
"J  c #B56A13",
"K  c #B87818",
"L  c #B67110",
"P  c #8A562D",
"I  c #A75D23",
"U  c #916E33",
"Y  c #AB6E28",
"T  c #C75908",
"R  c #DC5B03",
"E  c #D75A09",
"W  c #CC510B",
"Q  c #E25D03",
"!  c #E15E08",
"~  c #C7690D",
"^  c #D9670A",
"/  c #C6790D",
"(  c #D9770A",
")  c #C86917",
"_  c #D56D12",
"`  c #C87614",
"'  c #D87618",
"]  c #E36303",
"[  c #EC6B04",
"{  c #E66908",
"}  c #F36E03",
"|  c #E77909",
" . c #F47304",
".. c #FB7D05",
"X. c #F77908",
"o. c #EB7515",
"O. c #D17B29",
"+. c #8D6B53",
"@. c #558578",
"#. c #708E79",
"$. c #7F8357",
"%. c #B5881B",
"&. c #B48A2E",
"*. c #BAA031",
"=. c #DD860D",
"-. c #D58B15",
";. c #E8890D",
":. c #FD8306",
">. c #FD8B0A",
",. c #F7870A",
"<. c #F4930C",
"1. c #FC930B",
"2. c #FE9B0B",
"3. c #FC9A07",
"4. c #E98714",
"5. c #F78916",
"6. c #E79616",
"7. c #F89714",
"8. c #ED930C",
"9. c #FEA40D",
"0. c #FBA714",
"q. c #FBB815",
"w. c #ECB118",
"e. c #D18E2A",
"r. c #EF992A",
"t. c #D6A436",
"y. c #FAB827",
"u. c #D2A418",
"i. c #FBC51A",
"p. c #FFD21D",
"a. c #FEC825",
"s. c #FCD031",
"d. c #BB8D4C",
"f. c #8D9570",
"g. c #A79F5A",
"h. c #D6AF4A",
"j. c #F5A751",
"k. c #FDC672",
"l. c #E1C558",
"z. c #BFC16C",
"x. c #0E2D92",
"c. c #24308B",
"v. c #0D2EB2",
"b. c #131F96",
"n. c #045985",
"m. c #03488B",
"M. c #056588",
"N. c #026B95",
"B. c #05759A",
"V. c #1A7997",
"C. c #14708D",
"Z. c #3A7C85",
"A. c #2E6F90",
"S. c #027DAA",
"D. c #0479A5",
"F. c #0F74A9",
"G. c #226C92",
"H. c #0D32D3",
"J. c #0B38EF",
"K. c #1646F7",
"L. c #0F46FB",
"P. c #2149F4",
"I. c #196ACE",
"U. c #497A82",
"Y. c #318692",
"T. c #1889A9",
"R. c #0589B9",
"E. c #1895BC",
"W. c #0E8AB3",
"Q. c #3998A8",
"!. c #2C92AD",
"~. c #37A5B8",
"^. c #2FABBC",
"/. c #1C96AF",
"(. c #4D9193",
"). c #6B938A",
"_. c #76A58B",
"`. c #459CA8",
"'. c #599CA6",
"]. c #47A8B8",
"[. c #4DABB2",
"{. c #6EB0A9",
"}. c #47A694",
"|. c #6BCDB8",
" X c #018DC2",
".X c #0596C6",
"XX c #1696C8",
"oX c #099AD6",
"OX c #0F8ED3",
"+X c #259CCB",
"@X c #1AA4CB",
"#X c #06A8D9",
"$X c #17AAD8",
"%X c #1AB5D9",
"&X c #0DA6CF",
"*X c #27A6C8",
"=X c #37B8D5",
"-X c #2CAFD0",
";X c #0D9CE9",
":X c #07A7E6",
">X c #09B7EB",
",X c #16B9E9",
"<X c #0BB7F8",
"1X c #10B1F2",
"2X c #29B8EA",
"3X c #30B0F3",
"4X c #3090EA",
"5X c #49B8C9",
"6X c #43BAD5",
"7X c #4FB4C4",
"8X c #0AC6FB",
"9X c #16C8FB",
"0X c #17D5FC",
"qX c #1BC3EC",
"wX c #36C7E7",
"eX c #26CBF8",
"rX c #29D8FB",
"tX c #34DCFE",
"yX c #3BDCFD",
"uX c #36D6F6",
"iX c #34CEED",
"pX c #27E2FF",
"aX c #3AE4FC",
"sX c #31F0FF",
"dX c #3AC4DE",
"fX c #49C6D9",
"gX c #55C8D7",
"hX c #54CED6",
"jX c #69CCD2",
"kX c #59D7E7",
"lX c #46DAFB",
"zX c #56DBF7",
"xX c #49CDEA",
"cX c #6AD8E5",
"vX c #4BE2FD",
"bX c #45E6FC",
"nX c #54E4FD",
"mX c #5BE3FD",
"MX c #55EBFD",
"NX c #5BEBFE",
"BX c #58E7F4",
"VX c #56EEF6",
"CX c #66EAFB",
"ZX c #66F4FE",
"AX c #72EAF8",
"SX c #52E1DE",
"DX c #8FB287",
"FX c #A1A38C",
"GX c #A0CA9B",
"HX c #9CE8EA",
"JX c #FAEFDA",
"KX c #E4F6E8",
"LX c #F9FCF8",
"PX c #F5F8EE",
"IX c #D1F2E6",
"UX c None",
/* pixels */
"UXUXUXUXUXUXUXUXUXUXUXUXUXUXUXUXUXUXUXUXUXUXUXUXUXq.y.a.a.a.a.a.a.a.p.p.s.UXUXUXUXUXUXUXUXUXUXUXUXUXUXUXUXUXUXUXUXUXUXUXUXUXUXUX",
"UXUXUXUXUXUXUXUXUXUXUXUXUXUXUXUXUXUXUXUXUXUXl.q.q.i.q.i.i.i.w.i.i.p.p.p.p.p.p.s.s.UXUXUXUXUXUXUXUXUXUXUXUXUXUXUXUXUXUXUXUXUXUXUX",
"UXUXUXUXUXUXUXUXUXUXUXUXUXUXUXUXUXUXUXVXZXVXGXq.6.K G 7 3 3 3 3 3 0 0 %.u.i.p.i.q.y.a.UXUXUXUXUXUXUXUXUXUXUXUXUXUXUXUXUXUXUXUXUX",
"UXUXUXUXUXUXUXUXUXUXUXUXUXUXUXUXUXGXVXVXVXdX~.N , < $ f n (.`.].].5X7X[.Q._.f.*.w.q.q.q.y.UXUXUXUXUXUXUXUXUXUXUXUXUXUXUXUXUXUXUX",
"UXUXUXUXUXUXUXUXUXUXUXUXUXUXUX0.9.l.SXfX[.v *X=X[.jXcXZXZXZXNXMXMXvXnXmXVXNXBXZ.).g.r.9.2.2.7.UXUXUXUXUXUXUXUXUXUXUXUXUXUXUXUXUX",
"UXUXUXUXUXUXUXUXUXUXUXUXUXUX7.2.9.%.@.SXSX(.ZXZXZXAXkXhXQ.Q.bXlX].'.[.[.hXBXkXZ.AXcXf S ;.7.r.j.j.UXUXUXUXUXUXUXUXUXUXUXUXUXUXUX",
"UXUXUXUXUXUXUXUXUXUXUXUXUX7.2.4.S @ f VXZX}.hXhX[.n [.hXd - xXaXZ.).(.(.cXCX].'.AX7X%   # #.HXKXPXLXPXUXUXUXUXUXUXUXUXUXUXUXUXUX",
"UXUXUXUXUXUXUXUXUXUXUX5.>.>.L 4 + . 6 cXZX].(.cXgXn ZXZXQ.= =XaXY.@.#.(.mXCXZ.jXAXZ.w o d cXZXAXIXLXLXLXLXKXUXUXUXUXUXUXUXUXUXUX",
"UXUXUXUXUXUXUXUXUXUX,.:.5.F : @ O ).cXcXCXkX[.ZXCXY.`.6X].Q.wXtX=X5XfXgXNXgX(.AXcXc u t fXMXMXmXAXHXLXLXLXPXKXKXUXUXUXUXUXUXUXUX",
"UXUXUXUXUXUXUXUXUX,.:.;.Z > @ . # {.HXBXMXBX`.kXCXkX].BXCXZXbXaXrXpXwXkXZX[.'.AX].].gX6XnXvXvXBXNXNXHXLXLXLXPXPXKXIXUXUXUXUXUXUX",
"UXUXUXUXUXUXUXUX,.>.| Z > @ . : 2 ).VXbXmXCX5X[.NXnXQ.kXCXCX=X@X@X*X-XBXVXY.cXcXY.iXvXvXlXzXvXvXvXbXxXGXk.k.k.k.JXPXKXUXUXUXUXUX",
"UXUXUXUXUXUXUXX.:.o.Z > @ + > C ).bXbXQ.`.ZXkXY.fXfX6XgXZXAXiX>X:X:X,XqX%X`.ZXhX(.NXlXaXyXyXyXyXyXfXf.6.1.2.3.9.j.JXPXKXUXUXUXUX",
"UXUXUXUXUXUXUX:.o.A > @ + 2 C ).vXaXC.X - fXgXfXzXBXzX~.fX[.Q.M.n.l l B.B.hXNXQ.jXAX7Xv iXaXtXuX5Xd.<.1.<.;.;.( ' h.JXLXKXUXUXUX",
"UXUXUXUXUXUX....D > @ + > C #.mXbXv o   w =XnXBXxX~.Y.b x d -       . $ V CXSX@.HXAXf   - *XrX6Xe.<.<.=.` _ | | | o.O.f.FXFXUXUX",
"UXUXUXUXUXX...Y 5 + + > C +.zXlXT.* X w n.C.v v v Z.}.}.}.b p X # 7 -.7.GXZXjXg.s.g.U , . o @.t.1.,.L ^ X.X.:.....:.I 9 P P U P ",
"UXUXUXUXUXX.' G.m.x U.V M kXbX!.q * w l h g s h h UXUXUXv.x.p 7 6.3.3.8.f.cX(.%.y.e.9.( 3 $ / 2.<.S Z { X.5.UXUXUXUXUX9 9 9 9 9 ",
"UXUXUXUX..X.B F.g ].MXgX5XaX2Xg w & w r r r u UXUXUXUXH.H.i J 2.8.-.H H K &.K 6.6.-.0.0.&.-.3.;.S 2 2 4 UXUXUXUXUXUXUXUXUXUXUXUX",
"UXUXUXo...J z m.b zXvX~.iXyXV.g g u u r r t UXUXUXUXJ.J.i ` 2.-.G H 6.9.9.2.2.9.9.9.6.h.hX|.6.L Z : : UXUXUXUXUXUXUXUXUXUXUXUXUX",
"UXUXUXX.X.Z < % ~.bXdX-XaX*Xj g j j j j j UXUXUXUXUXJ.i ` 0.-.H ;.3.2.-.e.&.e.u.0.0.z.SXaXaXf.;.4.4 @ UXUXUXUXUXUXUXUXUXUXUXUXUX",
"UXUXo.:.~ > + d uXaXaXrX0XW.g j g u u j UXUXUXUXUXJ.x.J 9./ H <.3./ G H &._.[.}.{.GXSXsXaX#.-.9.9.` 1 1 UXUXUXUXUXUXUXUXUXUXUXUX",
"UXUXX.,.A < . !.aXiX-X2X$XM.j j j j j UXUXUXUXUXK.H.S 3.-.J <.8.H L 8.9.9.q.i.g.#.fXsXaX#.=.3.-.6.9.D 1 UXUXUXUXUXUXUXUXUXUXUXUX",
"UXUX..[ 4 < - wXaX^.kXhX!.j l j j j UXUXUXUXUXUXJ.y ( 6.H <.8.H =.3.8./ G U %.u.w.h.|._.;.2.=.K -.0.;.Z 4 UXUXUXUXUXUXUXUXUXUXUX",
"UX ...T 2 + x uXwX].ZXBXV.l j j j z UXUXUXUXUXK.v.F >.J ;.<.J =.3.-.8 - d s x UX%.0.t.4.1.4.H 7.7.6.9.~ Z UXUXUXUXUXUXUXUXUXUXUX",
"UXX.:.D 1 . !.tX*X(.5X5Xn.l j j j UXUXUXUXUXUXJ.y ;.( ` 1.L =.9.H e s h UXUXUXUXUXUXUX7.8.~ ' 2.9.u.t.r.I Z UXUXUXUXUXUXUXUXUXUX",
"UXX.| Z : O dXyXV.X X t l n.l l n.UXUXUXUXUXK.H.S ,.L ;.( S 8./ d s h UXUXUXUXUXUXUXUXUXO.| ..| 3.w.|.SX`.c UXUXUXUXUXUXUXUXUXUX",
"UX..~ C : t uXuXx X   r M.n.n.n.UXUXUXUXUXUXL.c.( =.L 3.S + 3 6 r s UXUXUXUXUXUXUXUXUXUXUX.. .S =.9.DXsX0X.XF.UXUXUXUXUXUXUXUXUX",
" ...F 2 @ b yXwXu % X k N.n.n.n.UXUXUXUXUXUXH.a <.~ ;.;., + o r s d UXUXUXUXUXUXUXUXUXUXUXo.S X G 3.t.iXeXoXF.UXUXUXUXUXUXUXUXUX",
" ...D 2 + V.lX=Xu % o N.N.M.M.M.UXUXUXUXUXP.H.9 3.L 3.L - = e g s UXUXUXUXUXUXUXUXUXUXUXUXUX* * 3 3.1.{.MXxXxXzXUXUXUXUXUXUXUXUX",
" ...A 1 # ~.lX-Xu & = N.N.N.N.V.UXUXUXUXUXK.v.F ,.L 9.0 h g g h z UXUXUXUXUXUXUXUXUXUXUXUXUXUX& ; e.4.DXmXmXmXmXaXsXpXpXrXpXUXUX",
" . .A > O =XlX+Xu & e B.D.N.B.UXUXUXUXUXUXK.v.~ ;./ 9.8 g h h k C.UXUXUXUXUXUXUXUXUXUXUXUXUXUXUXUXjXgXxXnXnXnXmXbX0X0X0X0X0XUXUX",
"X.| Z : O =XlX+Xu & r D.B.N.D.UXUXUXUXUXUXL.c.( | =.8.f g g h k UXUXUXUXUXUXUXUXUXUXUXUXUXUXUXUXUXnXnXnXzXxXxXzXvX0X8X8X8X8XUXUX",
" .{ 5 . - xXlX+Xm.w r D.D.D.S.UXUXUXUXUXUXL.c.| ( ( ;.f k k k M.UXUXUXUXUXUXUXUXUXUXUXUXUXUXUXUXUXnXvXvXY.- % ].mXqX>X8XqX8XUXUX",
"[ ^ - X - wXyX@Xn.w s D.W.R.R.UXUXUXUXUXUXK.c.| ( ( =.x k k l M.UXUXUXUXUXUXUXUXUXUXUXUXUXUXUXUXUXUXlXvXG.*   Q.zX2X>X#X#X#XUXUX",
"} ^ 5 O - wXyX@Xn.w g S.B.R.R.UXUXUXUXUXUXK.c.^ ( ;.=.b M.M.N.N.UXUXUXUXUXUXUXUXUXUXUXUXUXUXUXUXUXUXyXlXXXu & Q.zX$X.XR..X.XUXUX",
"} { Z @ - wXyX@XN.u g D.S.R.R.UXUXUXUXUXUXP.c.^ ;.( ;.n N.N.B.D.UXUXUXUXUXUXUXUXUXUXUXUXUXUXUXUXUXUXyXyX+Xm.p ].mXXXW.W.T.W.UXUX",
"} { Z @ % =XtX%XN.r r D.R.R..XUXUXUXUXUXUXK.v.J ,.^ 8.V M.M.N.S.UXUXUXUXUXUXUXUXUXUXUXUXUXUXUXUXUXUXyXyX+Xn.G.kXzXT.B.T.T.T.UXUX",
"} [ Z $ O =XpX,XD.j u D.S.R..XUXUXUXUXUXUXK.H.I ,./ 1.K &.&.f m UXUXUXUXUXUXUXUXUXUXUXUXUXUXUXUXUXUXlXlXxXxXzXCX5XT.M.M.k C.UXUX",
"[  .A :   ^.pXqXS.x.r D.R. X.XUXUXUXUXUXUXUXJ.9 ,.~ ,.8.0.w.U 9 N UXUXUXUXUXUXUXUXUXUXUXUXUXUXUXUX6XuXyXxXlXmXzXT.k k k h UXUXUX",
"[  .D <   T.rX,XXXR.B. XR..X.X&XUXUXUXUXUXUXJ.a ,.( =.<.6.q.e.M N UXUXUXUXUXUXUXUXUXUXUXUXUXUX>.| Y V A.+XiXxX!.h d h h v UXUXUX",
"o.} I % X k 0X>X%X0X8X>X#X.XR.R.UXUXUXUXUXUXL.v.~ ;.^ ,.6.0.w.U N N UXUXUXUXUXUXUXUXUXUXUXUX7.:.:.:.| F 4 UXUXUXUXUXUXUXUXUXUXUX",
"UX .) &   e >X$XE.0X8X>X#XR.R.R.UXUXUXUXUXUXP.J.9 >._ | 1.6.0.e.M B UXUXUXUXUXUXUXUXUXUXUXUX>.5.` X.:.:.{ A 4 UXUXUXUXUXUXUXUXUX",
"UX} ' a h z =X=XY.8X8X>X#X.XR.R.E.UXUXUXUXUXUXJ.i ( ,.) >.6.6.9.Y m f UXUXUXUXUXUXUXUXUXUX>.>.J (.{.O.;.[ W A C UXUXUXUXUXUXUXUX",
"UX[ [ N S.D.=XVXQ.%X8X>X#XoX XR.R.UXUXUXUXUXUXK.H.P 1._ ' 1.4.4.7.N b z UXUXUXUXUXUXUXUX7.>.( V rXpXwXm Z D D I UXUXUXUXUXUXUXUX",
"UX{ } Y B.D./.BXfX/.9X,X#X.X XR.R.UXUXUXUXUXUXUXJ.c.( >.~ | >.4.e.jXxX-X*XUXUXUXUXUXUX5.:.;.#.=XrXpXqX- X O $ 0 UXUXUXUXUXUXUXUX",
"UXUX} _ f r t 5XvXQ.xXbX2XoX X XS.R.UXUXUXUXUXUXP.H.a ..,.) o.:.e.{.eX0X0X8X<X1XUXr.' >.4.#.iXtXeXeX$Xn.n.N.N.UXUXUXUXUXUXUXUXUX",
"UXUX[ } P &   b vX5XgXVXuX$X$X&XXXXX+XUXUXUXUXUXUXP.v.P 1.;.` | 5.5.d.DX{.[.'.g.5.5.~ e._.uX0X,XeXeXXXN.B.B.D.UXUXUXUXUXUXUXUXUX",
"UXUXUX[ ) t X % dXlX6XlXaXiXwXtXtX,XoX.XUXUXUXUXUXUXJ.b.I ,.,.` _ | :...X.:.X...X.' I ).rXpX~.9 b #XS.N.B.B.T.UXUXUXUXUXUXUXUXUX",
"UXUXUXo.} U - X b lXyXrXrXeX*XeXrXeXoX X.XUXUXUXUXUXUXH.c.S ....' ~ ~ ^ { ^ ^ J F F ^ d.rX~.e.^ 1 & = = = UXUXUXUXUXUXUXUXUXUXUX",
"UXUXUXUX[ { M o X ^.aXtX2XF.u C.0X0XwXW.R.W.UXUXUXUXUXUXP.b.7 ~ :.:.{ ~ T T F T { X.:.( B U >.>.T # 3 f M.&XqXUXUXUXUXUXUXUXUXUX",
"UXUXUXUX! [ ) f X - dXrXwXOXm.& B.9X0XwX+XR.R.UXUXUXUXUXUXH.v.y S _ X.X. ....... .^ D ; /.7Xe.:.,.' 5.h.[.eXrXuXiXUXUXUXUXUXUXUX",
"UXUXUXUXUX{ [ Y 6 o x iXtX2XI.m.w B.8X0XeX=XXXI.UXUXUXUXUXUXUXv.b.p 5 S F T T D 4 # d ^.pX0X(.' ..,.o.5.e.'.^./.T.C.UXUXUXUXUXUX",
"UXUXUXUXUX! [ { Y ; o x eXrX2XI.x.w M.>X9XeXxX6XE.E.UXUXUXUXUXUXUXUXp q   .   X e Q.iXpX0X%X-X'.' X.X.[ / x k k k k UXUXUXUXUXUX",
"UXUXUXUXUXUX! ] { U 6 o v 9XeX2XI.v.r s XX<X<X*XdXxXcX5XA.A.r % X     o - e b ^.uXsX0X%X*X%X0X8X'.O.[ { P k k k k UXUXUXUXUXUXUX",
"UXUXUXUXUXUXUX! ] | G 6 o l <X9XeX4XH.x.z -X@X+XeX<X<X!.3XuX2XXXE.E.T.*XwXuXaXsXpX%X/.@X8X8X%XqX<XY ] ^ f k k h h UXUXUXUXUXUXUX",
"UXUXUXUXUXUXUXUXR ] { K 6   h ,X9X3X4XI.-XuX!.@X3X,X$X+XeX9X0X0X8X8X#XqX0XrXpXiX/.&X>X0X<X'.O.DX).! { P h h h h UXUXUXUXUXUXUXUX",
"UXUXUXUXUXUXUXUXUXR ] [ K 8 O e $X<X<X3XeX2XV.9X>XoX$XXXXXXX9X<XXX/.A.(.$.@.rXiXT.8X8X.Xr S  .[ { ! F f h h s h UXUXUXUXUXUXUXUX",
"UXUXUXUXUXUXUXUXUXUXE ^ { _ 7 # % T.<X<X<XXXT.<XXX;X1X1X1XV.,X8XN ' { { } O.wXrXT.oX;Xu   # E ! ^ ~ 6 s s h s UXUXUXUXUXUXUXUXUX",
"UXUXUXUXUXUXUXUXUXUXUXE Q ! _ D , o l 1X<XR.;X1XXXOX;X;X;XF.<X1XN  . .[ { ~ 7XrX+XN.OXx.3 D ! ! T 8 d s s s UXUXUXUXUXUXUXUXUXUX",
"UXUXUXUXUXUXUXUXUXUXUXUXE R R ] E Z z >X:XF.1X1X<X:XG.OXXXF.I.OX9 } E 4 @ . V.eX3Xj U.P E Q Q F 6 s s d s UXUXUXUXUXUXUXUXUXUXUX",
"UXUXUXUXUXUXUXUXUXUXUXUXUXUXR Q ! ) XX:X:X;XT.V.;XOXF.1X;X;X;X;XV [ ^ 2 +   d -X).I ! ! ! E S - s = e d UXUXUXUXUXUXUXUXUXUXUXUX",
"UXUXUXUXUXUXUXUXUXUXUXUXUXUXUXUXE +.OX;X:X;X+.^ I M c F.OXOXOX;Xm ] ^ C 1 4 D ) ] ] ] ! ^ UX- e = = UXUXUXUXUXUXUXUXUXUXUXUXUXUX",
"UXUXUXUXUXUXUXUXUXUXUXUXUXUXUXUXUXUXD. XoXOX) ] ] ^ E ) I P P P S E R E R ! R R R R E UXUXUXUXUXUXUXUXUXUXUXUXUXUXUXUXUXUXUXUXUX",
"UXUXUXUXUXUXUXUXUXUXUXUXUXUXUXUXUXUXUXUXUXUX) E ^ R R ] R ] Q R Q Q R R R R E E UXUXUXUXUXUXUXUXUXUXUXUXUXUXUXUXUXUXUXUXUXUXUXUX",
"UXUXUXUXUXUXUXUXUXUXUXUXUXUXUXUXUXUXUXUXUXUXUXUXUXUXT E E R W E R E W W W UXUXUXUXUXUXUXUXUXUXUXUXUXUXUXUXUXUXUXUXUXUXUXUXUXUXUX"
};
