/* XPM */
static char *bitcoin16[] = {
/* columns rows colors chars-per-pixel */
"16 16 172 2 ",
"   c #6C2C11",
".  c #5E4C28",
"X  c #474C38",
"o  c #66422F",
"O  c #7C4822",
"+  c #76593B",
"@  c #043C62",
"#  c #1D4B54",
"$  c #24585C",
"%  c #0E5267",
"&  c #11526D",
"*  c #085277",
"=  c #1D6177",
"-  c #1A697D",
";  c #336374",
":  c #3A6E7C",
">  c #35727B",
",  c #3B777A",
"<  c #50594E",
"1  c #505A53",
"2  c #626846",
"3  c #727C5C",
"4  c #4E4972",
"5  c #695377",
"6  c #6D5476",
"7  c #536A72",
"8  c #637467",
"9  c #627E7E",
"0  c #9F4808",
"q  c #98480E",
"w  c #874515",
"e  c #984811",
"r  c #974D1A",
"t  c #9F5615",
"y  c #B64F06",
"u  c #B0520C",
"i  c #B04D10",
"p  c #A55615",
"a  c #A05B19",
"s  c #BB5412",
"d  c #B6610E",
"f  c #B56F1E",
"g  c #8A4E27",
"h  c #A15C23",
"j  c #9C7321",
"k  c #97693B",
"l  c #A86D2E",
"z  c #A67223",
"x  c #A7752A",
"c  c #AF712A",
"v  c #A06738",
"b  c #A07139",
"n  c #C45B06",
"m  c #D35C03",
"M  c #D05F15",
"N  c #CC7109",
"B  c #CB7A1E",
"V  c #C26F25",
"C  c #C17124",
"Z  c #C37F2F",
"A  c #8C694D",
"S  c #91614B",
"D  c #A56642",
"F  c #957C62",
"G  c #6E876A",
"H  c #75876B",
"J  c #648C74",
"K  c #719271",
"L  c #7D9070",
"P  c #8D853B",
"I  c #AB8433",
"U  c #BB8431",
"Y  c #AB9138",
"T  c #D5810D",
"R  c #D7870E",
"E  c #CA821D",
"W  c #EC800B",
"Q  c #E78A13",
"!  c #D29228",
"~  c #C69933",
"^  c #E9B52D",
"/  c #989A4E",
"(  c #9E9A54",
")  c #BD8D42",
"_  c #A5974E",
"`  c #BA964C",
"'  c #A38D58",
"]  c #A2AF5A",
"[  c #B1AE5E",
"{  c #82976E",
"}  c #919774",
"|  c #A1B06E",
" . c #A5A474",
".. c #D1944F",
"X. c #C3BD4F",
"o. c #065A80",
"O. c #3E4796",
"+. c #0E6786",
"@. c #06628C",
"#. c #0E668B",
"$. c #03719A",
"%. c #167890",
"&. c #3F7785",
"*. c #257C93",
"=. c #247D97",
"-. c #2B7E95",
";. c #307D97",
":. c #584686",
">. c #4C4A94",
",. c #524B94",
"<. c #4F7A82",
"1. c #1D819B",
"2. c #298398",
"3. c #0283AF",
"4. c #038FBF",
"5. c #098BBA",
"6. c #0594B9",
"7. c #2487A4",
"8. c #228DAD",
"9. c #2B89AC",
"0. c #379BAB",
"q. c #37A1B6",
"w. c #3FACBE",
"e. c #408A8D",
"r. c #509298",
"t. c #529799",
"y. c #6E9C86",
"u. c #70A08D",
"i. c #7BB095",
"p. c #7EBD97",
"a. c #53AFB6",
"s. c #51A7B9",
"d. c #68B7B3",
"f. c #1582C4",
"g. c #059ACC",
"h. c #1490C2",
"j. c #1B94C7",
"k. c #1C93C9",
"l. c #199DD2",
"z. c #2095C7",
"x. c #1CA2C5",
"c. c #15A6D4",
"v. c #19A3D1",
"b. c #1EA7D4",
"n. c #1DA4D6",
"m. c #13AED4",
"M. c #34ABC6",
"N. c #2EB0CE",
"B. c #33B0C8",
"V. c #20B4DE",
"C. c #34B7D2",
"Z. c #3DBED7",
"A. c #1CBBE3",
"S. c #21B0E1",
"D. c #40AEC7",
"F. c #43B2C8",
"G. c #50B5C0",
"H. c #47BBD2",
"J. c #10CBF4",
"K. c #36CAF0",
"L. c #27D0F5",
"P. c #52C3CB",
"I. c #51C1D2",
"U. c #50C6D6",
"Y. c #53CCDB",
"T. c #62C1C5",
"R. c #46D3EE",
"E. c #F5CF91",
"W. c #EADEB5",
"Q. c #9FDAD1",
"!. c #E1F0EA",
"~. c None",
/* pixels */
"~.~.~.~.~.p.Y / ] X.^ ~.~.~.~.~.",
"~.~.~.N K P.a.w.G.T.G  .!.~.~.~.",
"~.~.n   r.Y.U.Z.N.I.D.R.Q.E.W.~.",
"~.C o 7 = *.q.; 2 i.{ J U W ..F ",
"~.+ M.8.@ ~.O.l R ~ [ _ 0 ~.~.~.",
"m 1 B.#.~.~.S T j P | ! E ~.~.~.",
"y : & o.~.>.f . # ~.~.d ( F.~.~.",
"e ;.* $.~.5 z % ~.~.~.~.d.H.L.J.",
"w 7.@.3.~.6 x - ~.~.~.~.K.9.x.6.",
"q 1.5.4.~.,.B I ~.~.~.~.} s.%.~.",
"h 2.A.g.~.~.D Q H ~.~.` L O ~.~.",
"~.< C.V.c.~.:.V ) ' Z u.=.+.~.~.",
"~.p , j.h.b.~.4 g t 3 y.c e.~.~.",
"~.~.a > f.n.S.v.-.0.m.t.b $ ~.~.",
"~.~.~.u &.l.k.z.k 8 <.r X ~.~.~.",
"~.~.~.~.~.9 v A s i M ~.~.~.~.~."
};
