/* XPM */
static char *bitcoin32[] = {
/* columns rows colors chars-per-pixel */
"32 32 229 2 ",
"   c #3D0604",
".  c #331914",
"X  c #32261F",
"o  c #0E1E2E",
"O  c #0E2B36",
"+  c #2F2C33",
"@  c #5B140C",
"#  c #4B180F",
"$  c #641409",
"%  c #57240B",
"&  c #422A19",
"*  c #5C2E12",
"=  c #6A3611",
"-  c #722B08",
";  c #783F21",
":  c #4E2B2F",
">  c #3D413F",
",  c #5A481F",
"<  c #7D581F",
"1  c #4E4324",
"2  c #5D4525",
"3  c #7E5638",
"4  c #7C4D28",
"5  c #6E6336",
"6  c #072B48",
"7  c #07364A",
"8  c #073759",
"9  c #072F53",
"0  c #272F55",
"q  c #1C4847",
"w  c #07495C",
"e  c #124A53",
"r  c #2C4745",
"t  c #2F5053",
"y  c #054769",
"u  c #04526A",
"i  c #044C74",
"p  c #084A75",
"a  c #065777",
"s  c #124E6A",
"d  c #345767",
"f  c #235569",
"g  c #06637C",
"h  c #1B6477",
"j  c #39767C",
"k  c #276A77",
"l  c #474F49",
"z  c #795357",
"x  c #674452",
"c  c #5F7255",
"v  c #75674B",
"b  c #5A7977",
"n  c #5B7F67",
"m  c #66586C",
"M  c #983907",
"N  c #892E05",
"B  c #904E0E",
"V  c #A64608",
"C  c #A55715",
"Z  c #B7530B",
"A  c #96661D",
"S  c #BE690C",
"D  c #B76E17",
"F  c #935428",
"G  c #AA5B24",
"H  c #906E2E",
"J  c #AD6F2C",
"K  c #C75906",
"L  c #DC5C02",
"P  c #D75906",
"I  c #C84D05",
"U  c #E35D04",
"Y  c #DC6B0C",
"T  c #D86409",
"R  c #D7790A",
"E  c #C86613",
"W  c #CD7A14",
"Q  c #DA7513",
"!  c #CB680F",
"~  c #E56808",
"^  c #E87909",
"/  c #F37D0A",
"(  c #F77909",
")  c #E67C13",
"_  c #DD7F20",
"`  c #925B41",
"'  c #927647",
"]  c #A77E43",
"[  c #7B815D",
"{  c #719374",
"}  c #7BA171",
"|  c #B39031",
" . c #DB840D",
".. c #D3840E",
"X. c #D38512",
"o. c #DB8616",
"O. c #CE8512",
"+. c #E78309",
"@. c #F8890F",
"#. c #E58616",
"$. c #E69615",
"%. c #F29111",
"&. c #FAA311",
"*. c #E9B419",
"=. c #F9B617",
"-. c #CE982A",
";. c #CB922C",
":. c #E48D2A",
">. c #E1952B",
",. c #D4AE35",
"<. c #F7B620",
"1. c #FACA1E",
"2. c #FFCD26",
"3. c #89845A",
"4. c #9F955B",
"5. c #B08849",
"6. c #A8A25C",
"7. c #A1B15E",
"8. c #9DB674",
"9. c #8DA470",
"0. c #B7AF62",
"q. c #878D72",
"w. c #C79444",
"e. c #FAAD47",
"r. c #D2AD44",
"t. c #E4C241",
"y. c #2839AE",
"u. c #2237B8",
"i. c #025C81",
"p. c #0C5783",
"a. c #0C4688",
"s. c #066689",
"d. c #116A86",
"f. c #076898",
"g. c #077198",
"h. c #167A99",
"j. c #0F718F",
"k. c #27768A",
"l. c #107BAD",
"z. c #4C4588",
"x. c #526E80",
"c. c #1438DD",
"v. c #0833DD",
"b. c #0F3AE2",
"n. c #1D7FD2",
"m. c #1446E8",
"M. c #14819E",
"N. c #33889A",
"B. c #338693",
"V. c #0683A6",
"C. c #038BBA",
"Z. c #0385B4",
"A. c #1091BC",
"S. c #2793AF",
"D. c #3499AC",
"F. c #2A99B5",
"G. c #3C9CB0",
"H. c #2B8AA8",
"J. c #33A5B6",
"K. c #54908E",
"L. c #6D8F8B",
"P. c #7FB299",
"I. c #4AA9B5",
"U. c #53B2BB",
"Y. c #4FADB2",
"T. c #70B6AB",
"R. c #59C4BE",
"E. c #6ECAB2",
"W. c #0C9BCD",
"Q. c #0894C6",
"!. c #1494CC",
"~. c #1391C0",
"^. c #089DD6",
"/. c #1292D7",
"(. c #0D86C7",
"). c #2194CA",
"_. c #16A2CC",
"`. c #0AA4DB",
"'. c #17A9D5",
"]. c #10ABD3",
"[. c #27A8C8",
"{. c #38B7CA",
"}. c #26ABDA",
"|. c #37B9D8",
" X c #209BEA",
".X c #18AEE4",
"XX c #18B9EA",
"oX c #0BB1ED",
"OX c #27BDE6",
"+X c #34B9E2",
"@X c #48BACA",
"#X c #56B8C7",
"$X c #60BFCE",
"%X c #37C4DE",
"&X c #1AC2E5",
"*X c #1BDBFE",
"=X c #0EC4F5",
"-X c #2AC6EA",
";X c #39CBE8",
":X c #39D0EB",
">X c #25C6F2",
",X c #38D8FC",
"<X c #35CEF5",
"1X c #4BC3CF",
"2X c #57C6C9",
"3X c #48C5D9",
"4X c #54C9D8",
"5X c #57D1D9",
"6X c #72D4C9",
"7X c #49D5E8",
"8X c #56D5EA",
"9X c #46DBF9",
"0X c #4DCFED",
"qX c #6EDAE1",
"wX c #45E1FC",
"eX c #58E7FB",
"rX c #6EEAFD",
"tX c #86A886",
"yX c #86BAA1",
"uX c #BAB7A2",
"iX c #A6B689",
"pX c #D2B795",
"aX c #87C0A3",
"sX c #F5E0AF",
"dX c #A2E6E2",
"fX c #DBF6F1",
"gX c #F7F8EA",
"hX c #EDF8F2",
"jX c None",
/* pixels */
"jXjXjXjXjXjXjXjXjXjXjX1.*.*.*.*.*.1.1.2.jXjXjXjXjXjXjXjXjXjXjXjX",
"jXjXjXjXjXjXjXjXjXeXeX9.A 5 c [ { { 7.r.*.=.jXjXjXjXjXjXjXjXjXjX",
"jXjXjXjXjXjXjX&.-.R.I.1X2X4X@X9X3X5XwXY.P.J o.e.jXjXjXjXjXjXjXjX",
"jXjXjXjXjXjX@.S % G.5X2XY.1Xk |.K.K.8XU.#Xo b dXhXhXjXjXjXjXjXjX",
"jXjXjXjXjX/ V   l qXeX4X4X@X3X:X;X4X5X2XI.h.0XeXrXfXgXgXfXjXjXjX",
"jXjXjXjX@.M   # L.3X4X@X8X4XeX%X`.-X@X5X@XeXwX9X7XiXe.e.sXgXjXjX",
"jXjXjX( M # @ L.{.7 k.7X3XD.B.f 7 t Y.2X6Xk.D.3X0.%.+.^ >.pXuXjX",
"jXjX@.J 0 l m @Xw 6 a h k jXa.0 B O.aX} r.C & | R Z ( +./ F 3 3 ",
"jXjX) d S.3X3Xh.9 8 8 jXjXv.m W ....-.$.&.,.9.o.N $ jXjXjXjXjXjX",
"jX( V + %X;X'.a y p jXjXjXm W W  . .| 7.0.6X2X-.E % jXjXjXjXjXjX",
"jX^ * k ;X;Xl.i p jXjXjXy.D .. . .O.| | 8.E.;.o.$.V jXjXjXjXjXjX",
"jXP # F.{.@Xd.i p jXjXb.z  . . .A r e jXjX>.#. .$.-.F jXjXjXjXjX",
"( Z X +Xs O i.a jXjXjXu.D  .B < e jXjXjXjXjX) Y $.E.F.jXjXjXjXjX",
"( N t +X9 7 s.i.jXjXjXz.R W X 7 w jXjXjXjXjXjX& S 8.-X|.jXjXjXjX",
"~ N d +X9 y g.g.jXjXjXm +.A w u jXjXjXjXjXjXjXjX3.yXeXeX,X*X*XjX",
"~ % k.+X8 a l.l.jXjXjXz +.H a g jXjXjXjXjXjXjXjXjXwXD.G.,X=X=XjX",
"T X k.OXy i.Z.C.jXjXm.` +.H a s.jXjXjXjXjXjXjXjXjX9Xs d ;X`.W.jX",
"~ % k.OXi.g C.C.jXjXjXz ^ 3.s.g.jXjXjXjXjXjXjXjXjX,Xn.H.|.l.V.jX",
"~ - h >Xf.i.C.Q.jXjXjXz.R  .| v jXjXjXjXjXjXjXjXjX<X0X0XS.g g jX",
"~ - e XX`.Q.Q.C.jXjXjXy.R +.$.| v jXjXjXjXjXjX@.) ' K.jXjXjXjXjX",
"( 4 w [.'.=X^.C.jXjXjXb.` ) %.$.v jXjXjXjXjXjXQ 5.#.I N jXjXjXjX",
"jXJ h.|.{.=X`.C.(.jXjXjXz.Q ) @.4.F.jXjXjXjX@.} *XB.* 4 jXjXjXjX",
"jXY 0 k 3X7XXXW.~.jXjXjXc.z +.) w.T.@XY.:.o.tX-X>XZ.i.s.jXjXjXjX",
"jX( C o J.9X-X-X>XW.jXjXjXu.` ^ ^ ) Q Q T ] |.3.d i s.jXjXjXjXjX",
"jXjX~ 2 e <X}.p.'.XXA.jXjXjXy.x S R ~ T T A K.#.Z H D.-XjXjXjXjX",
"jXjXjX! 1 h OXn.a.W.-X}.jXjXjXjX0 : - , l J.&XL.) / [ M.j.jXjXjX",
"jXjXjX~ E 1 d.XXn.a.!.OX+X+X[.h.p.a M.[.-X&X=X-Xq.T t a jXjXjXjX",
"jXjXjXjXT ! , s .X X}.!.XX'. X=X'.G.U.:X].].x.J E H u u jXjXjXjX",
"jXjXjXjXjXT T B 0 _.'.`./..X!.'.' ~ D |.`.f.* P C q u jXjXjXjXjX",
"jXjXjXjXjXjXjXL C A.`.)./.(././.J V . N.x.G P F q w jXjXjXjXjXjX",
"jXjXjXjXjXjXjXjXjX/./.J G v x.x.G I M K T U jXjXjXjXjXjXjXjXjXjX",
"jXjXjXjXjXjXjXjXjXjXjXjXU ~ L P P P P jXjXjXjXjXjXjXjXjXjXjXjXjX"
};
